Coordinates
version=1
nRows=8
nColumns=40
inDegrees=yes

Units are S.I. units (second, meters, Newtons, ...)
If the header above contains a line with 'inDegrees', this indicates whether rotational values are in degrees (yes) or radians (no).

endheader
time	pelvis_tilt	pelvis_list	pelvis_rotation	pelvis_tx	pelvis_ty	pelvis_tz	hip_flexion_r	hip_adduction_r	hip_rotation_r	knee_angle_r	knee_angle_r_beta	ankle_angle_r	subtalar_angle_r	mtp_angle_r	hip_flexion_l	hip_adduction_l	hip_rotation_l	knee_angle_l	knee_angle_l_beta	ankle_angle_l	subtalar_angle_l	mtp_angle_l	lumbar_extension	lumbar_bending	lumbar_rotation	arm_flex_r	arm_add_r	arm_rot_r	elbow_flex_r	pro_sup_r	wrist_flex_r	wrist_dev_r	arm_flex_l	arm_add_l	arm_rot_l	elbow_flex_l	pro_sup_l	wrist_flex_l	wrist_dev_l
      0.63000000	     -4.47717148	      4.23277856	     -5.01837076	      1.73081413	      0.97061229	      0.62824855	     -0.78930370	     -2.02635876	      1.77643409	     37.97045281	      0.66270942	     11.32024341	      0.00000000	      0.00000000	     43.14627102	      3.83742864	      1.32463544	     84.80849839	      1.48018753	      7.69223610	      0.00000000	      0.00000000	     -7.00761210	     -3.18361301	      9.73751044	      0.42241881	    -12.96504943	     19.09419144	     89.34040546	     58.96542592	      0.00000000	      0.00000000	    -24.15377441	    -18.92185091	     19.03380620	     90.71137961	     64.75729393	      0.00000000	      0.00000000
      0.63500000	     -4.58873196	      4.79886725	     -4.52033410	      1.74782036	      0.97483785	      0.62791325	     -2.05386904	     -2.79685334	      1.02531836	     36.63387358	      0.63938171	      8.76306408	      0.00000000	      0.00000000	     43.22674695	      4.62839215	      1.23209559	     81.95616300	      1.43040489	      7.49136235	      0.00000000	      0.00000000	     -6.51412197	     -3.96451355	      9.93088518	      0.41969072	    -12.97451134	     19.15319631	     89.93278119	     59.14398028	      0.00000000	      0.00000000	    -24.88916276	    -19.41257101	     18.73837778	     90.92029527	     64.69777383	      0.00000000	      0.00000000
      0.64000000	     -5.01969420	      5.15366416	     -4.10247044	      1.76517065	      0.97850499	      0.62806035	     -2.99672262	     -3.20555701	      0.59229551	     35.29387061	      0.61599425	      6.69696759	      0.00000000	      0.00000000	     43.57667677	      4.93111757	      0.94235225	     79.10781210	      1.38069179	      7.57720585	      0.00000000	      0.00000000	     -5.64455681	     -4.52544064	     10.19427017	      0.32922109	    -13.04200894	     19.13075058	     90.47435433	     59.26218746	      0.00000000	      0.00000000	    -25.65167061	    -19.84047134	     18.53264062	     91.00404448	     64.65859143	      0.00000000	      0.00000000
      0.64500000	     -5.07300091	      5.69592944	     -3.56039453	      1.78247177	      0.98276002	      0.62748145	     -4.26447859	     -3.98542196	     -0.47380428	     34.03830771	      0.59408054	      3.94154701	      0.00000000	      0.00000000	     43.37121352	      5.67924220	      0.77870986	     75.97475104	      1.32600955	      7.34662510	      0.00000000	      0.00000000	     -5.24748858	     -5.26682446	     10.30318431	      0.25096752	    -12.98520456	     19.16462491	     91.12092025	     59.43301345	      0.00000000	      0.00000000	    -26.38844743	    -20.24148040	     18.16802590	     91.15513022	     64.58209404	      0.00000000	      0.00000000
      0.65000000	     -5.10408552	      6.25543533	     -3.04145330	      1.79967055	      0.98684755	      0.62730752	     -5.64844505	     -4.59746509	     -1.22088605	     32.63305578	      0.56955427	      1.64571155	      0.00000000	      0.00000000	     43.08383248	      6.35414166	      0.57579185	     72.77963177	      1.27024420	      7.37146657	      0.00000000	      0.00000000	     -4.97497198	     -6.08812807	     10.37547955	      0.24364347	    -12.95731760	     19.16944320	     91.87529378	     59.66702344	      0.00000000	      0.00000000	    -27.25941668	    -20.70326349	     17.63757522	     91.57755067	     64.48826887	      0.00000000	      0.00000000
      0.65500000	     -5.37066126	      6.75309490	     -2.53754543	      1.81709399	      0.99062163	      0.62651355	     -6.68471117	     -5.25023936	     -2.19824499	     31.39666611	      0.54797520	     -0.98416623	      0.00000000	      0.00000000	     42.91843118	      7.00501174	      0.35767446	     69.46543294	      1.21240052	      7.22820826	      0.00000000	      0.00000000	     -4.33078085	     -6.75274216	     10.54322666	      0.12568313	    -13.00971207	     19.21139076	     92.37256440	     59.83310933	      0.00000000	      0.00000000	    -28.03619567	    -21.00731974	     17.20130612	     91.66525673	     64.38227377	      0.00000000	      0.00000000
      0.66000000	     -5.77784629	      6.97288327	     -2.18730436	      1.83444225	      0.99369794	      0.62649454	     -7.49180012	     -5.45834457	     -2.71021678	     30.34322415	      0.52958917	     -2.83238247	      0.00000000	      0.00000000	     42.90692187	      7.19452511	      0.06328280	     66.25874980	      1.15643334	      7.30076631	      0.00000000	      0.00000000	     -3.47357854	     -7.17621577	     10.74980379	     -0.02878982	    -13.12127196	     19.28248555	     92.78106681	     59.94994901	      0.00000000	      0.00000000	    -28.84140789	    -21.32314997	     16.93201389	     91.81036562	     64.33549021	      0.00000000	      0.00000000
      0.66500000	     -6.08620798	      7.48350786	     -1.67739721	      1.85173470	      0.99684496	      0.62606171	     -8.46466188	     -5.90636972	     -3.10623279	     29.22435900	      0.51006129	     -5.01033317	      0.00000000	      0.00000000	     42.67748844	      7.80021909	     -0.19964610	     62.76778717	      1.09550455	      7.04487811	      0.00000000	      0.00000000	     -2.86234466	     -7.88703899	     10.78757471	     -0.10526803	    -13.07198242	     19.45625920	     93.34826858	     60.11789411	      0.00000000	      0.00000000	    -29.65853075	    -21.73907182	     16.45353584	     92.17834728	     64.26787898	      0.00000000	      0.00000000
